HIERARCHY
ROOT Hips
{
    OFFSET 0.000000 0.000000 0.000000
    CHANNELS 6 Xposition Yposition Zposition Zrotation Xrotation Yrotation
    JOINT Spine
    {
        OFFSET -0.000000 7.236184 0.000000
        CHANNELS 3 Zrotation Xrotation Yrotation
        JOINT Spine1
        {
            OFFSET -0.000000 20.420147 0.000000
            CHANNELS 3 Zrotation Xrotation Yrotation
            JOINT Neck
            {
                OFFSET -0.000000 20.336288 1.848754
                CHANNELS 3 Zrotation Xrotation Yrotation
                JOINT Head
                {
                    OFFSET -0.000000 12.354461 -1.764923
                    CHANNELS 3 Zrotation Xrotation Yrotation
                    End Site
                    {
                        OFFSET -0.000000 22.061537 0.000000
                    }
                }
            }
            JOINT LeftShoulder
            {
                OFFSET 3.573296 18.396038 -0.314103
                CHANNELS 3 Zrotation Xrotation Yrotation
                JOINT LeftArm
                {
                    OFFSET 10.880760 0.000000 0.000000
                    CHANNELS 3 Zrotation Xrotation Yrotation
                    JOINT LeftForeArm
                    {
                        OFFSET 27.185530 0.000000 0.000000
                        CHANNELS 3 Zrotation Xrotation Yrotation
                        JOINT LeftHand
                        {
                            OFFSET 27.825975 0.000000 0.000000
                            CHANNELS 3 Zrotation Xrotation Yrotation
                            End Site
                            {
                                OFFSET 13.236923 0.000000 0.000000
                            }
                        }
                    }
                }
            }
            JOINT RightShoulder
            {
                OFFSET -3.474926 18.396038 -0.314103
                CHANNELS 3 Zrotation Xrotation Yrotation
                JOINT RightArm
                {
                    OFFSET -10.880760 0.000000 0.000000
                    CHANNELS 3 Zrotation Xrotation Yrotation
                    JOINT RightForeArm
                    {
                        OFFSET -27.185530 0.000000 0.000000
                        CHANNELS 3 Zrotation Xrotation Yrotation
                        JOINT RightHand
                        {
                            OFFSET -27.825975 0.000000 0.000000
                            CHANNELS 3 Zrotation Xrotation Yrotation
                            End Site
                            {
                                OFFSET -13.236923 0.000000 0.000000
                            }
                        }
                    }
                }
            }
        }
    }
    JOINT LeftUpLeg
    {
        OFFSET 8.824615 0.000000 0.000000
        CHANNELS 3 Zrotation Xrotation Yrotation
        JOINT LeftLeg
        {
            OFFSET -0.000000 -35.111282 0.000000
            CHANNELS 3 Zrotation Xrotation Yrotation
            JOINT LeftFoot
            {
                OFFSET -0.000000 -42.324711 0.000000
                CHANNELS 3 Zrotation Xrotation Yrotation
                JOINT LeftToeBase
                {
                    OFFSET -0.000000 -5.735999 13.236923
                    CHANNELS 3 Zrotation Xrotation Yrotation
                    End Site
                    {
                        OFFSET -0.000000 0.000000 3.529846
                    }
                }
            }
        }
    }
    JOINT RightUpLeg
    {
        OFFSET -8.824615 0.000000 0.000000
        CHANNELS 3 Zrotation Xrotation Yrotation
        JOINT RightLeg
        {
            OFFSET -0.000000 -35.111282 0.000000
            CHANNELS 3 Zrotation Xrotation Yrotation
            JOINT RightFoot
            {
                OFFSET -0.000000 -42.324711 0.000000
                CHANNELS 3 Zrotation Xrotation Yrotation
                JOINT RightToeBase
                {
                    OFFSET -0.000000 -5.735999 13.236923
                    CHANNELS 3 Zrotation Xrotation Yrotation
                    End Site
                    {
                        OFFSET -0.000000 0.000000 3.529846
                    }
                }
            }
        }
    }
}
MOTION
Frames:    8
Frame Time:    0.008333
-7.019520    81.666397    110.661247    -0.543885    -5.438846    -167.340378    -3.537479    -13.550866    -0.332498    -1.890796    7.373997    0.209634    0.702528    11.138861    -6.491058    11.785105    -2.844656    -4.823328    7.229943    7.991681    -15.105091    -37.634113    26.760191    -66.769691    11.589509    -37.989384    -116.151176    34.012032    -18.248728    12.131903    -2.957923    9.346410    7.370081    47.123848    8.805261    52.746948    -8.233633    -38.945850    121.793823    -21.287046    -25.196980    -7.413358    6.652956    -14.058595    3.547184    -0.716165    20.779049    10.458973    -8.914938    -7.980191    -11.639512    0.441163    -0.231266    -0.489218    -10.977906    -2.241595    -5.083591    12.166607    16.384714    -8.149697    -8.705417    -14.415853    -31.409826    21.480646    -66.270966    -30.930975    
-7.022902    81.666702    110.666573    -0.550252    -5.443550    -167.341644    -3.535655    -13.556437    -0.335862    -1.883705    7.374999    0.206203    0.704725    11.106045    -6.485442    11.767341    -2.822927    -4.822959    7.227657    7.987658    -15.103817    -37.670132    26.724758    -66.738281    11.568022    -37.974762    -116.178474    34.003887    -18.252777    12.144098    -2.952353    9.346144    7.361122    47.176697    8.777010    52.722145    -8.168302    -38.919289    121.841309    -21.335453    -25.252556    -7.447844    6.643768    -14.056703    3.558995    -0.715905    20.765532    10.450577    -8.906001    -7.976416    -11.640012    0.439423    -0.236199    -0.487292    -10.988735    -2.217281    -5.072988    12.158847    16.261322    -8.966528    -8.544735    -14.491968    -30.594835    21.466600    -66.492096    -31.021622    
-7.026281    81.667038    110.671700    -0.556568    -5.448255    -167.343185    -3.533783    -13.561699    -0.339349    -1.876714    7.375419    0.202811    0.706816    11.073172    -6.479743    11.749570    -2.801082    -4.822493    7.226139    7.983320    -15.102695    -37.706429    26.688585    -66.707367    11.546102    -37.959854    -116.205597    33.995335    -18.257235    12.156077    -2.948038    9.345078    7.352652    47.228207    8.747971    52.698036    -8.104424    -38.893127    121.887245    -21.383032    -25.306915    -7.481752    6.634759    -14.054630    3.570809    -0.715785    20.751984    10.442135    -8.897182    -7.972926    -11.640303    0.437460    -0.240889    -0.485119    -10.999434    -2.192963    -5.062458    12.150671    16.142199    -9.735148    -7.761119    -14.664283    -29.687250    21.252571    -66.554482    -30.751419    
-7.029754    81.667412    110.676552    -0.563030    -5.453073    -167.345367    -3.531796    -13.566330    -0.342335    -1.869705    7.374653    0.198665    0.709236    11.040115    -6.473664    11.730836    -2.779794    -4.821757    7.225235    7.977900    -15.102348    -37.744370    26.650118    -66.675690    11.522941    -37.943653    -116.233444    33.985851    -18.262121    12.168254    -2.945128    9.342658    7.344948    47.277828    8.716462    52.674820    -8.041317    -38.866905    121.931931    -21.430212    -25.360334    -7.515676    6.625669    -14.051953    3.583015    -0.715645    20.737911    10.433042    -8.888536    -7.969941    -11.640045    0.435130    -0.245128    -0.482540    -11.010319    -2.167988    -5.051301    12.142889    16.027821    -10.433854    -7.047424    -14.803286    -28.857042    21.058752    -66.615898    -30.508669    
-7.033320    81.667862    110.681007    -0.569614    -5.458025    -167.348389    -3.529749    -13.570006    -0.346077    -1.862730    7.372028    0.194936    0.711675    11.007043    -6.467143    11.711430    -2.758923    -4.820630    7.225645    7.970871    -15.103045    -37.784729    26.608747    -66.643150    11.498295    -37.925938    -116.261841    33.974949    -18.267422    12.180470    -2.944908    9.338021    7.338563    47.325142    8.681654    52.652687    -7.979263    -38.840172    121.974548    -21.476357    -25.412378    -7.548908    6.616668    -14.048589    3.595309    -0.715788    20.723320    10.423732    -8.880082    -7.967644    -11.639219    0.432321    -0.248796    -0.479428    -11.021284    -2.142390    -5.039739    12.135851    15.920049    -11.041397    -6.431070    -14.909273    -28.131741    20.892550    -66.673973    -30.302822    
-7.037023    81.668404    110.685013    -0.576419    -5.463169    -167.352570    -3.527580    -13.572591    -0.349283    -1.855704    7.367208    0.190404    0.714366    10.973933    -6.460047    11.691096    -2.738621    -4.819009    7.227734    7.961503    -15.104940    -37.828011    26.563707    -66.609505    11.472127    -37.906281    -116.290649    33.962250    -18.272976    12.192662    -2.947834    9.330471    7.333754    47.369534    8.642582    52.631943    -7.917606    -38.812660    122.015297    -21.521477    -25.463522    -7.581879    6.607591    -14.044248    3.607882    -0.716064    20.707876    10.414331    -8.871765    -7.966006    -11.637893    0.428884    -0.252278    -0.475620    -11.032542    -2.115924    -5.027225    12.130054    15.818159    -11.558093    -5.913049    -14.987593    -27.512749    20.753759    -66.726845    -30.132837    
-7.040905    81.669029    110.688568    -0.583523    -5.468575    -167.358307    -3.525236    -13.573922    -0.352601    -1.848623    7.359634    0.185677    0.717436    10.940784    -6.452137    11.669472    -2.718761    -4.816706    7.232125    7.949866    -15.108377    -37.875038    26.513021    -66.574715    11.444505    -37.884388    -116.319542    33.946938    -18.278482    12.204813    -2.954605    9.319091    7.330955    47.411026    8.597551    52.612690    -7.854840    -38.783016    122.054588    -21.565969    -25.514425    -7.614884    6.598444    -14.038762    3.620730    -0.716701    20.691341    10.405142    -8.863350    -7.965002    -11.635971    0.424782    -0.255304    -0.471073    -11.044161    -2.088494    -5.013770    12.125348    15.721087    -11.991874    -5.483580    -15.044416    -26.990767    20.639275    -66.773964    -29.994259    
-7.044880    81.669769    110.691536    -0.590816    -5.474175    -167.365677    -3.522867    -13.573899    -0.356848    -1.841799    7.349066    0.181911    0.721087    10.909060    -6.443540    11.646997    -2.699964    -4.813737    7.238853    7.935002    -15.113711    -37.925156    26.457949    -66.538742    11.416666    -37.860874    -116.347328    33.929016    -18.283045    12.216552    -2.965504    9.303449    7.330384    47.447895    8.547536    52.595528    -7.792421    -38.752129    122.091087    -21.608580    -25.564426    -7.647177    6.589404    -14.032145    3.633306    -0.717864    20.673927    10.397000    -8.854839    -7.964494    -11.633694    0.420050    -0.258260    -0.465828    -11.055924    -2.060922    -4.999769    12.121775    15.630587    -12.341036    -5.141777    -15.083543    -26.568098    20.548727    -66.813744    -29.885733    
